<svg xmlns="http://www.w3.org/2000/svg" xmlns:xlink="http://www.w3.org/1999/xlink" id="Layer_1" x="0px" y="0px" viewBox="0 0 180 22.3" style="enable-background:new 0 0 180 22.3;" xml:space="preserve"><style type="text/css">	.st0{fill:#072929;}</style><path class="st0" d="M33.2,19.1c-1.2,0-2.3-0.2-3.1-0.7s-1.5-1-2.1-1.7c-0.5-0.7-0.8-1.4-1-2.2l2.6-0.7c0.2,0.8,0.6,1.5,1.2,2 c0.6,0.4,1.4,0.7,2.3,0.7c0.7,0,1.2-0.1,1.7-0.5s0.7-0.8,0.7-1.2c0-0.4-0.1-0.8-0.5-1.2c-0.3-0.4-0.7-0.6-1.3-0.7l-2.3-0.5 c-1.2-0.2-2.2-0.7-2.9-1.5s-1-1.8-1-3c0-0.8,0.2-1.5,0.7-2.3c0.5-0.7,1.1-1.2,1.9-1.6s1.6-0.6,2.5-0.6c1.1,0,2.1,0.2,2.9,0.6 c0.8,0.4,1.4,0.9,1.8,1.5s0.7,1.2,0.9,1.8L35.8,8c-0.3-0.7-0.7-1.2-1.2-1.5C34.1,6.1,33.5,6,32.8,6C32.3,6,32,6,31.6,6.3 c-0.3,0.1-0.6,0.4-0.8,0.7c-0.1,0.3-0.3,0.6-0.3,0.8c0,0.4,0.1,0.9,0.4,1.2c0.3,0.3,0.7,0.5,1.2,0.7l2.2,0.4 c1.3,0.3,2.3,0.8,3.1,1.6s1.1,1.8,1.1,2.9c0,0.8-0.2,1.5-0.7,2.2c-0.4,0.7-1.1,1.2-1.9,1.7C35.3,18.9,34.3,19.1,33.2,19.1z"></path><path class="st0" d="M45.8,19.1c-1.1,0-2.1-0.2-2.9-0.7s-1.6-1.2-2.1-2.1c-0.5-0.9-0.8-1.9-0.8-2.9c0-1.1,0.3-2.1,0.8-2.9 c0.5-0.9,1.2-1.6,2.1-2.1c0.9-0.5,1.9-0.7,3-0.7c1.1,0,2.1,0.2,2.9,0.7c0.9,0.5,1.6,1.2,2.1,2.1c0.5,0.9,0.8,1.9,0.8,2.9 c0,1.1-0.3,2.1-0.8,3c-0.5,0.9-1.2,1.6-2.1,2.1C47.9,18.9,46.8,19.1,45.8,19.1z M42.7,13.3c0,1,0.3,1.8,0.9,2.4c0.6,0.7,1.3,1,2.3,1 c0.6,0,1.1-0.1,1.5-0.4c0.4-0.3,0.8-0.7,1.1-1.2c0.3-0.5,0.4-1.1,0.4-1.8c0-0.7-0.1-1.2-0.4-1.7c-0.3-0.5-0.6-1-1.1-1.2 c-0.4-0.3-1-0.4-1.5-0.4s-1.2,0.1-1.6,0.4c-0.4,0.3-0.8,0.7-1.1,1.2C42.8,12,42.7,12.6,42.7,13.3z"></path><path class="st0" d="M54,10.3h-2V7.9h2V7.6c0-1.4,0.4-2.4,1.1-3.2c0.7-0.8,1.8-1.2,3.1-1.2c0.4,0,0.7,0,1,0.1v2.3 c-0.2-0.1-0.5-0.1-0.7-0.1c-1.2,0-1.9,0.7-1.9,2.1v0.4h2.5v2.3h-2.5v8.5H54V10.3z"></path><path class="st0" d="M66.2,18.9c-1.2,0-2.2-0.4-2.9-1c-0.7-0.7-1-1.7-1-2.9v-4.9h-1.9V7.6h0.2c0.5,0,1-0.1,1.2-0.4 c0.3-0.3,0.4-0.7,0.4-1.2V5.2h2.7v2.6h2.6v2.4h-2.6v4.8c0,1.2,0.7,1.8,1.9,1.8c0.2,0,0.4,0,0.7-0.1v2.3 C67.1,18.9,66.6,18.9,66.2,18.9z"></path><path class="st0" d="M68.2,7.7H71l2.3,7l2.5-7h2.3l2.4,7l2.3-7h2.9L82,18.9h-2.4L77,11.4l-2.6,7.5H72L68.2,7.7z"></path><path class="st0" d="M89.8,19.1c-1.2,0-2.1-0.3-2.8-0.9c-0.7-0.6-1-1.3-1-2.3c0-1,0.3-1.7,1-2.3c0.7-0.6,1.6-1,2.9-1.2l3.3-0.5v-0.4 c0-0.5-0.2-0.9-0.6-1.2c-0.4-0.3-0.9-0.4-1.5-0.4c-0.6,0-1.1,0.1-1.5,0.4c-0.4,0.3-0.7,0.7-1,1.2l-2.2-1.1c0.3-0.9,1-1.5,1.8-2.1 c0.9-0.5,1.8-0.8,3-0.8c0.9,0,1.7,0.1,2.4,0.5c0.7,0.3,1.2,0.8,1.6,1.4c0.4,0.6,0.6,1.2,0.6,2.1v7.4h-2.6v-1.2 C92.3,18.6,91.2,19.1,89.8,19.1z M88.7,15.8c0,0.4,0.1,0.7,0.4,1c0.3,0.2,0.7,0.3,1.1,0.3c0.8,0,1.5-0.3,2.1-0.8 c0.5-0.5,0.8-1.2,0.8-2v-0.4l-2.8,0.4c-0.5,0.1-1,0.3-1.2,0.5C88.8,15,88.7,15.4,88.7,15.8z"></path><path class="st0" d="M97.8,7.7h2.5v1.5c0.3-0.6,0.7-1,1.2-1.3c0.5-0.3,1.1-0.4,1.8-0.4h0.7v2.3h-1c-0.7,0-1.4,0.2-1.8,0.7 c-0.4,0.5-0.7,1.1-0.7,2v6.2h-2.7V7.7z"></path><path class="st0" d="M110.3,19.1c-1.1,0-2.1-0.3-3-0.8c-0.9-0.5-1.5-1.2-2.1-2.1c-0.5-0.9-0.7-1.8-0.7-2.9s0.2-2.1,0.7-2.9 c0.5-0.9,1.2-1.6,2-2.1c0.9-0.5,1.8-0.7,2.9-0.7s2.1,0.2,2.9,0.7c0.8,0.5,1.5,1.1,1.8,2c0.4,0.8,0.7,1.8,0.7,2.7 c0,0.4-0.1,0.8-0.1,1.1h-8c0.1,0.8,0.4,1.5,1,2c0.5,0.5,1.2,0.7,2.1,0.7c0.6,0,1.1-0.1,1.5-0.4c0.4-0.3,0.8-0.6,1-1.1l2.2,1.1 c-0.4,0.8-1,1.5-1.8,2C112.5,18.9,111.4,19.1,110.3,19.1z M112.7,12c-0.1-0.7-0.4-1.2-0.8-1.7c-0.4-0.4-1-0.7-1.8-0.7 c-0.7,0-1.2,0.2-1.8,0.6c-0.5,0.4-0.8,1-1,1.7L112.7,12L112.7,12z"></path><path class="st0" d="M120.6,3.6h10.2V6h-7.4v4.2h6.4v2.4h-6.4v6.1h-2.8L120.6,3.6L120.6,3.6z"></path><path class="st0" d="M131.9,7.7h2.7v11.1h-2.7V7.7z M131.7,4.6c0-0.5,0.1-0.9,0.4-1.2c0.3-0.3,0.7-0.4,1.1-0.4 c0.5,0,0.9,0.1,1.2,0.4c0.3,0.3,0.4,0.7,0.4,1.2s-0.1,0.9-0.4,1.1c-0.3,0.3-0.7,0.4-1.2,0.4c-0.5,0-0.9-0.1-1.1-0.4 C131.9,5.5,131.7,5.1,131.7,4.6z"></path><path class="st0" d="M136.7,7.7h2.5v1.4c0.3-0.5,0.7-0.9,1.2-1.2c0.6-0.3,1.2-0.4,1.9-0.4c0.8,0,1.5,0.1,2.2,0.5 c0.7,0.4,1.2,0.9,1.5,1.5c0.4,0.7,0.5,1.4,0.5,2.2v7.2h-2.7v-6.5c0-0.7-0.2-1.3-0.7-1.8c-0.4-0.4-1-0.7-1.6-0.7s-1.2,0.2-1.6,0.7 c-0.4,0.4-0.6,1-0.6,1.8v6.5h-2.7L136.7,7.7L136.7,7.7z"></path><path class="st0" d="M153.6,19.1c-1.1,0-2.1-0.2-2.9-0.7c-0.9-0.5-1.5-1.2-2-2.1c-0.5-0.9-0.7-1.8-0.7-2.9s0.2-2.1,0.7-2.9 c0.5-0.9,1.2-1.6,2.1-2.1c0.9-0.5,1.8-0.8,2.9-0.8c0.7,0,1.4,0.1,2,0.4c0.6,0.2,1.1,0.6,1.5,1V3.3h2.7v15.5h-2.6v-1.2 c-0.4,0.5-1,0.9-1.5,1.1C154.9,18.9,154.3,19.1,153.6,19.1z M150.7,13.3c0,0.7,0.1,1.2,0.4,1.8c0.3,0.5,0.7,0.9,1.1,1.2 c0.4,0.3,1,0.4,1.6,0.4c0.6,0,1.1-0.1,1.6-0.4c0.5-0.3,0.9-0.7,1.1-1.2c0.3-0.5,0.4-1.1,0.4-1.8s-0.1-1.2-0.4-1.7 c-0.3-0.5-0.7-1-1.1-1.2c-0.5-0.3-1-0.4-1.6-0.4c-0.6,0-1.2,0.1-1.6,0.4c-0.5,0.3-0.9,0.7-1.1,1.2C150.8,12,150.7,12.6,150.7,13.3z"></path><path class="st0" d="M167,19.1c-1.1,0-2.1-0.3-3-0.8c-0.9-0.5-1.5-1.2-2.1-2.1c-0.5-0.9-0.7-1.8-0.7-2.9s0.2-2.1,0.7-2.9 c0.5-0.9,1.2-1.6,2-2.1c0.9-0.5,1.8-0.7,2.9-0.7s2.1,0.2,2.9,0.7c0.8,0.5,1.5,1.1,1.8,2c0.4,0.8,0.7,1.8,0.7,2.7 c0,0.4-0.1,0.8-0.1,1.1h-8c0.1,0.8,0.4,1.5,1,2c0.5,0.5,1.2,0.7,2.1,0.7c0.6,0,1.1-0.1,1.5-0.4c0.4-0.3,0.8-0.6,1-1.1l2.2,1.1 c-0.4,0.8-1,1.5-1.8,2C169.1,18.9,168.1,19.1,167,19.1z M169.4,12c-0.1-0.7-0.4-1.2-0.8-1.7c-0.4-0.4-1-0.7-1.8-0.7 c-0.7,0-1.2,0.2-1.8,0.6c-0.5,0.4-0.8,1-1,1.7L169.4,12L169.4,12z"></path><path class="st0" d="M173.8,7.7h2.5v1.5c0.3-0.6,0.7-1,1.2-1.3c0.5-0.3,1.1-0.4,1.8-0.4h0.7v2.3h-1c-0.7,0-1.4,0.2-1.8,0.7 s-0.7,1.1-0.7,2v6.2h-2.7V7.7z"></path><path class="st0" d="M17.5,0.3C17.5,0.4,17.5,0.4,17.5,0.3c0.3,0.3,0.3,0.7,0.1,1.1S15,4.3,15.1,6.5c0.1,2.3,2.9,4.8,3,5.1 c0.2,0.3,0.1,0.7,0,1c-0.2,0.3-0.6,0.4-0.9,0.3L3.3,8C3,7.9,2.7,7.6,2.7,7.2c0-0.4,0.2-0.7,0.5-0.9l13.3-6.2 C16.9,0,17.2,0.1,17.5,0.3z"></path><path class="st0" d="M1.9,21.9L1.9,21.9c-0.3-0.3-0.3-0.7-0.1-1.1c0.1-0.4,2.6-2.9,2.5-5.1c-0.1-2.3-2.9-4.8-3-5.1 c-0.2-0.3-0.1-0.7,0-1c0.2-0.3,0.6-0.4,0.9-0.3L16,14.2c0.3,0.1,0.5,0.4,0.6,0.8c0,0.4-0.2,0.7-0.5,0.9L2.7,22.1 C2.4,22.3,2.1,22.2,1.9,21.9z"></path></svg>